<svg width="808" height="807" viewBox="0 0 808 807" fill="none" xmlns="http://www.w3.org/2000/svg">
<path d="M278.386 593C279.25 604.938 295.098 688.637 311.886 713.5C338.059 721.759 356.385 724.307 380.886 726.949M278.386 593C269.292 531.485 263.565 494.652 259.886 446M278.386 593C244.81 575.302 226.316 559.395 193.886 529.5M259.886 446C254.673 395.23 256.743 382.25 262.886 364C274.686 351.977 277.417 347.196 287.886 342C315.191 331.989 332.305 328.379 367.386 327H397.886M259.886 446L221.886 435.071C202.204 431.095 194.907 431.421 186.386 435.071M397.886 327C492.616 335.938 539.876 332.558 638.886 327M397.886 327C378.774 326.16 371.203 322.314 361.386 311.5C351.463 289.148 351.073 277.114 364.386 257M638.886 327C669.331 329.039 693.196 327.368 720.886 336C731.145 339.09 736.944 341.545 747.386 347.5C763.872 357.543 768.324 365.614 767.386 384.5C768.718 407.845 765.68 447.372 761.848 485M638.886 327C653.749 321.681 663.166 318.201 664.386 311.5C675.897 290.22 675.938 278.281 664.386 257M640.386 729.5C683.901 724.667 701.324 720.435 716.886 709.5C722.554 698.216 727.969 682.205 732.772 665M640.386 729.5C598.139 732.327 563.403 733.918 529.386 734.161M640.386 729.5C640.473 747.811 637.908 758.098 626.886 776.5C605.02 803.952 591.829 805.847 558.386 780C544.752 766.044 537.016 755.79 529.386 734.161M380.886 726.949C388.209 727.739 396.085 728.538 404.886 729.5C439.121 731.987 468.499 733.458 496.886 733.979M380.886 726.949C384.304 745.253 387.285 754.807 393.886 771C419.474 805.358 435.617 808.813 468.386 780C483.641 762.846 489.559 752.704 496.886 733.979M496.886 733.979C507.792 734.179 518.553 734.238 529.386 734.161M732.772 665C742.419 630.444 749.594 591.071 751.386 575.5C753.107 560.547 757.899 523.782 761.848 485M732.772 665C738.164 676.933 741.567 682.135 748.386 688.5C763.486 698.897 771.799 696.608 786.386 678.5C797.903 645.335 800.581 625.868 800.386 590C794.569 543.466 785.18 521.047 761.848 485M193.886 529.5C180.342 535.422 171.415 526.717 161.886 514.5M193.886 529.5C206.825 517.756 206.055 510.089 197.886 495.5M161.886 514.5C177.401 509.93 185.341 505.88 197.886 495.5M161.886 514.5C147.154 514.491 140.772 509.872 131.886 495.5C127.307 479.432 125.923 470.459 124.886 454.5C128.623 438.672 134.177 431.526 143.401 429.5M197.886 495.5L210.886 483.5C220.443 467.558 220.532 459.247 207.386 446C199.738 441.267 193.628 437.717 186.386 435.071M186.386 435.071C184.632 434.43 182.811 433.842 180.886 433.303M364.386 257C482.672 227.081 548.363 226.909 664.386 257M364.386 257C360.257 242.902 359.633 235.022 361.386 221C338.582 213.407 330.452 203.015 322.386 176C321.246 111.355 330.849 88.7117 348.886 74.5C378.071 55.2793 390.247 55.9698 420.386 67M664.386 257C669.652 243.503 669.735 235.629 664.386 221C687.679 215.267 696.643 207.617 703.886 184.5C712.686 136.402 707.902 113.602 686.386 78.5C659.946 59.403 643.217 58.4617 611.386 67M420.386 67C439.612 29.3218 459.664 15.6288 516.386 8C565.832 13.2911 588.723 23.2042 611.386 67M420.386 67C415.255 82.6649 414.486 93.1937 420.386 118M611.386 67C618.686 87.5645 617.178 98.5972 611.386 118M143.401 429.5C147.464 428.608 152.24 428.709 157.886 429.5C167.462 430.351 174.711 431.574 180.886 433.303M143.401 429.5L103.886 282L69.8859 293C59.9734 295.505 55.6276 292.095 48.8859 282L8.38593 170C6.72924 157.91 10.3471 154.34 20.3859 150.5L136.386 118C146.535 116.621 151.496 117.886 157.886 127L180.886 238C183.571 250.373 182.057 255.574 174.386 262L136.386 274L180.886 433.303M57.3859 171.5L79.8859 249.5M87.8859 162.5L109.886 240.5M116.886 155.5L138.886 232.5M486.886 575.5C490.386 585 500.386 588.5 512.386 589.5C524.386 590.5 536.386 586.5 539.886 575.5M450.386 361C440.386 363.5 439.386 379 450.386 383H574.886C584.886 383 585.886 361 574.886 361H450.386ZM336.386 446C340.872 427.45 349.065 419.616 384.386 415C486.659 406.869 543.711 406.625 644.886 415C677.301 423.093 688.762 429.377 688.386 446C685.223 523.154 680.166 565.571 664.386 639.5C660.156 651.186 655.483 655.501 644.886 661C544.294 674.95 487.179 673.992 384.386 661C374.435 659.004 370.315 655.066 367.386 639.5C345.983 565.02 339.355 522.638 336.386 446ZM441.886 477.5C423.886 477.5 413.113 488.061 411.386 514.5C414.386 538 422.386 546 441.886 546C461.386 546 468.466 534.953 471.886 514.5C471.403 489.706 460.386 480 441.886 477.5ZM587.886 477.5C563.394 479.107 557.726 489.176 555.386 514.5C558.416 536.259 564.341 544.736 587.886 546C603.886 543.5 613.001 533.647 615.886 514.5C616.55 491.799 603.886 477.5 587.886 477.5Z" stroke="#E4C59E" stroke-width="18" stroke-miterlimit="2.7285" stroke-linecap="round" stroke-linejoin="round"/>
</svg>
